<svg width="40" height="40" viewBox="0 0 40 40" fill="none" xmlns="http://www.w3.org/2000/svg">
<path d="M20 40C8.95428 40 0 31.0457 0 20C0 8.95428 8.95428 0 20 0C31.0457 0 40 8.95428 40 20C40 31.0457 31.0457 40 20 40Z" fill="white"/>
<path d="M24.4 11.2H27.8222C28.36 11.2 28.8 11.64 28.8 12.1777C28.8 21.3591 21.3591 28.8 12.1778 28.8C11.64 28.8 11.2 28.36 11.2 27.8222V24.4097C11.2 23.872 11.64 23.432 12.1778 23.432C13.3902 23.432 14.5733 23.2364 15.6684 22.8746C15.7662 22.8355 15.8738 22.8257 15.9716 22.8257C16.2258 22.8257 16.4702 22.9235 16.6658 23.1093L18.8169 25.2604C21.584 23.8426 23.8524 21.584 25.2604 18.8168L23.1093 16.6657C22.8356 16.392 22.7573 16.0106 22.8649 15.6684C23.2267 14.5733 23.4222 13.4 23.4222 12.1777C23.4222 11.64 23.8622 11.2 24.4 11.2Z" fill="black"/>
</svg>
