<svg width="41" height="42" viewBox="0 0 41 42" fill="none" xmlns="http://www.w3.org/2000/svg">
<path d="M20.7464 41C9.84072 41 1 32.0457 1 21C1 9.95428 9.84072 1 20.7464 1C31.652 1 40.4927 9.95428 40.4927 21C40.4927 32.0457 31.652 41 20.7464 41Z" stroke="white" stroke-miterlimit="10"/>
<path d="M17.7357 33.0857H22.54V20.8944H25.8916L26.2444 16.8166H22.5296C22.5296 16.8166 22.5296 15.2927 22.5296 14.494C22.5296 13.5271 22.7164 13.1487 23.6399 13.1487C24.3766 13.1487 26.2444 13.1487 26.2444 13.1487V8.91333C26.2444 8.91333 23.505 8.91333 22.9136 8.91333C19.3337 8.91333 17.7253 10.5108 17.7253 13.5586C17.7253 16.2176 17.7253 16.8166 17.7253 16.8166H15.2246V20.947H17.7253V33.0857H17.7357Z" fill="white"/>
</svg>
