<svg width="25" height="25" viewBox="0 0 25 25" fill="none" xmlns="http://www.w3.org/2000/svg">
<path d="M16.3549 17.407H8.64508C8.50799 17.407 8.39642 17.2927 8.39642 17.1522V12.7345C8.39642 12.594 8.50799 12.4797 8.64508 12.4797H16.3549C16.492 12.4797 16.6036 12.594 16.6036 12.7345V17.1515C16.6036 17.2927 16.4927 17.407 16.3549 17.407ZM8.89374 16.8967H16.1063V12.9901H8.89374V16.8967Z" fill="white"/>
<path d="M17.7513 12.9901H7.24866C7.11157 12.9901 7 12.8757 7 12.7345V10.8066C7 10.6661 7.11157 10.5518 7.24866 10.5518H17.7513C17.8884 10.5518 18 10.6661 18 10.8066V12.7353C18 12.8757 17.8884 12.9901 17.7513 12.9901ZM7.49732 12.4797H17.5027V11.0614H7.49732V12.4797Z" fill="white"/>
<path d="M13.3798 10.8066H11.6195V17.1522H13.3798V10.8066Z" fill="white"/>
<path d="M12.5004 10.377C12.4719 10.377 12.4435 10.3717 12.4158 10.362C10.5468 9.67157 9.57043 8.70687 9.4297 7.4134C9.36553 6.82158 9.66377 6.30299 10.1903 6.09227C10.6774 5.89799 11.3701 5.98317 11.82 6.61235C12.5208 7.59124 12.7388 9.99811 12.7476 10.0997C12.7549 10.1864 12.7191 10.2709 12.652 10.3247C12.6076 10.359 12.5543 10.377 12.5004 10.377ZM10.6759 6.50923C10.5673 6.50923 10.4637 6.53016 10.3711 6.56677C10.0517 6.69455 9.88472 6.98971 9.9241 7.35661C10.032 8.35343 10.7795 9.1328 12.2058 9.73284C12.1146 9.01623 11.8791 7.55612 11.419 6.91349C11.2126 6.62431 10.9319 6.50923 10.6759 6.50923Z" fill="white"/>
<path d="M11.5283 10.6385C10.0962 10.6385 8.57361 9.45486 8.4934 9.39135C8.38475 9.30542 8.36433 9.14551 8.44819 9.03417C8.53205 8.92283 8.6881 8.90116 8.79675 8.98709C8.81935 9.00428 11.0471 10.7356 12.3706 9.9047C12.4872 9.83147 12.6411 9.86884 12.7126 9.98914C12.7847 10.1094 12.7476 10.2664 12.6302 10.3396C12.2889 10.5533 11.9119 10.6385 11.5283 10.6385Z" fill="white"/>
<path d="M12.5004 10.0407C12.3647 10.0407 12.2539 9.92936 12.2517 9.79112C12.2502 9.72014 12.2298 8.0508 13.242 7.35885C13.8567 6.9389 14.4911 7.15037 14.8477 7.54491C15.2021 7.93722 15.2531 8.46776 14.9716 8.8354C14.4488 9.51838 13.3863 10.0362 12.5004 10.0407C12.5004 10.0407 12.5011 10.0407 12.5004 10.0407ZM13.9456 7.64131C13.8122 7.64131 13.6671 7.68241 13.5183 7.78403C12.9386 8.18007 12.7957 9.06555 12.76 9.5124C13.4345 9.42049 14.2067 9.01026 14.5808 8.52156C14.7303 8.32653 14.6391 8.06499 14.4831 7.89163C14.3598 7.75489 14.168 7.64131 13.9456 7.64131Z" fill="white"/>
<path d="M13.8545 10.516C13.3674 10.516 12.8576 10.368 12.3538 9.99289C12.2429 9.90994 12.2181 9.75078 12.2984 9.63645C12.3793 9.52287 12.5346 9.49746 12.6462 9.57966C13.379 10.1251 14.1863 10.152 15.046 9.65962C15.7139 9.27703 16.1573 8.72257 16.1617 8.7166C16.2484 8.6075 16.4052 8.59031 16.5117 8.67923C16.6181 8.76816 16.6349 8.92881 16.5481 9.03791C16.053 9.6641 15.0205 10.516 13.8545 10.516Z" fill="white"/>
<circle cx="12.5" cy="12.5" r="12" stroke="white"/>
</svg>
