<svg width="25" height="25" viewBox="0 0 25 25" fill="none" xmlns="http://www.w3.org/2000/svg">
<path fill-rule="evenodd" clip-rule="evenodd" d="M13 18H12.4545V14.4164C11.8709 14.9455 11.1018 15.2727 10.2727 15.2727C8.5 15.2727 7 13.7727 7 12V11.4545H10.5836C10.0545 10.8709 9.72727 10.1018 9.72727 9.27273C9.72727 7.5 11.2273 6 13 6H13.5455V9.58364C14.1291 9.05455 14.8982 8.72727 15.7273 8.72727C17.5 8.72727 19 10.2273 19 12V12.5455H15.4164C15.9455 13.1291 16.2727 13.8982 16.2727 14.7273C16.2727 16.5 14.7727 18 13 18ZM13.5455 16.8382C14.4727 16.5873 15.1818 15.7255 15.1818 14.7273C15.1818 13.7291 14.4727 12.8673 13.5455 12.6164V16.8382ZM10.2727 14.1818C9.27455 14.1818 8.41273 13.4727 8.16182 12.5455H12.3836C12.1327 13.4727 11.2709 14.1818 10.2727 14.1818ZM17.8382 11.4545C17.5873 10.5273 16.72 9.81818 15.7273 9.81818C14.7345 9.81818 13.8673 10.5273 13.6164 11.4545H17.8382ZM10.8182 9.27273C10.8182 8.28 11.5273 7.41273 12.4545 7.16182V11.3836C11.5273 11.1327 10.8182 10.2655 10.8182 9.27273Z" fill="white"/>
<circle cx="12.5" cy="12.5" r="12" stroke="white"/>
</svg>
