<svg width="25" height="25" viewBox="0 0 25 25" fill="none" xmlns="http://www.w3.org/2000/svg">
<path fill-rule="evenodd" clip-rule="evenodd" d="M17.3054 12.3673C17.0836 12.3673 16.9357 12.5257 16.9357 12.7846V18.5563H14.2742V16.2173C14.2742 16.0097 14.1263 15.8 13.9445 15.8H12.0243C11.8025 15.8 11.6147 16.0097 11.6147 16.2173V18.5563H8.99311V12.9922C8.99311 12.7333 8.80928 12.5749 8.62346 12.5749C8.40166 12.5749 8.2538 12.7333 8.2538 12.9922V19.0271C8.2538 19.2347 8.40166 19.4444 8.62346 19.4444H12.0243C12.2081 19.4444 12.354 19.2347 12.354 19.0271V16.6324H13.5369V19.025C13.5369 19.2326 13.7207 19.4423 13.9425 19.4423H17.3034C17.4872 19.4423 17.6731 19.2326 17.6731 19.025V12.7846C17.6751 12.5257 17.4872 12.3673 17.3054 12.3673ZM8.62545 6.27675C8.81128 6.27675 8.96514 6.4929 8.96514 6.75612V9.93195L12.6877 5.70964C12.7596 5.60478 12.8715 5.55556 12.9814 5.55556C13.0573 5.55556 13.1313 5.60478 13.2032 5.70964C15.3812 8.15357 16.8958 9.86989 19.3335 12.6798C19.4814 12.8381 19.4814 13.1484 19.3335 13.3025C19.2616 13.356 19.1856 13.4074 19.0758 13.4074C18.9639 13.4074 18.854 13.3539 18.818 13.3025L12.9814 6.59562L7.10886 13.1977C6.961 13.4074 6.73921 13.4074 6.59134 13.1977C6.51741 13.1484 6.48145 13.0436 6.48145 12.9387C6.48145 12.8381 6.51741 12.7311 6.59334 12.6263L8.28377 10.7066V6.75612C8.28377 6.49504 8.43763 6.27675 8.62545 6.27675Z" fill="white"/>
<circle cx="12.5" cy="12.5" r="12" stroke="white"/>
</svg>
