<svg width="25" height="25" viewBox="0 0 25 25" fill="none" xmlns="http://www.w3.org/2000/svg">
<path fill-rule="evenodd" clip-rule="evenodd" d="M17.3054 12.3673C17.0836 12.3673 16.9358 12.5257 16.9358 12.7846V18.5563H14.2742V16.2173C14.2742 16.0097 14.1264 15.8 13.9445 15.8H12.0243C11.8025 15.8 11.6147 16.0097 11.6147 16.2173V18.5563H8.99314V12.9922C8.99314 12.7333 8.80931 12.5749 8.62349 12.5749C8.40169 12.5749 8.25383 12.7333 8.25383 12.9922V19.0271C8.25383 19.2347 8.40169 19.4444 8.62349 19.4444H12.0243C12.2082 19.4444 12.354 19.2347 12.354 19.0271V16.6324H13.5369V19.025C13.5369 19.2326 13.7208 19.4423 13.9425 19.4423H17.3034C17.4873 19.4423 17.6731 19.2326 17.6731 19.025V12.7846C17.6751 12.5257 17.4873 12.3673 17.3054 12.3673ZM8.62548 6.27675C8.81131 6.27675 8.96517 6.4929 8.96517 6.75612V9.93195L12.6877 5.70964C12.7596 5.60478 12.8715 5.55556 12.9814 5.55556C13.0574 5.55556 13.1313 5.60478 13.2032 5.70964C15.3812 8.15357 16.8958 9.86989 19.3335 12.6798C19.4814 12.8381 19.4814 13.1484 19.3335 13.3025C19.2616 13.356 19.1857 13.4074 19.0758 13.4074C18.9639 13.4074 18.854 13.3539 18.818 13.3025L12.9814 6.59562L7.10889 13.1977C6.96103 13.4074 6.73924 13.4074 6.59137 13.1977C6.51744 13.1484 6.48148 13.0436 6.48148 12.9387C6.48148 12.8381 6.51744 12.7311 6.59337 12.6263L8.2838 10.7066V6.75612C8.2838 6.49504 8.43766 6.27675 8.62548 6.27675Z" fill="#20419A"/>
<circle cx="12.5" cy="12.5" r="12" stroke="#20419A"/>
</svg>
