<svg width="126" height="50" viewBox="0 0 126 50" fill="none" xmlns="http://www.w3.org/2000/svg">
<path d="M18.4245 1.19521H27.9042C28.5531 1.19521 29.2497 1.6801 29.4614 2.28112L45.9076 47.2346C46.1261 47.8356 45.7846 48.3206 45.1426 48.3206H35.8132C35.1643 48.3206 34.4745 47.8289 34.2765 47.2279L31.0392 37.5159H14.4428L11.1986 47.2279C10.9938 47.8357 10.3108 48.3206 9.67562 48.3206H0.824267C0.189099 48.3206 -0.152463 47.8356 0.0660894 47.2346L16.8537 2.28112C17.0859 1.6801 17.7893 1.19521 18.4245 1.19521ZM28.5053 29.245L22.7819 11.433L16.9152 29.245H28.5053Z" fill="#20419A"/>
<path d="M90.6493 1.19521H107.15C110.073 1.19521 112.546 1.5367 114.574 2.21967C116.596 2.90265 118.248 3.811 119.519 4.93791C120.789 6.06482 121.711 7.37612 122.271 8.85135C122.838 10.3334 123.118 11.8838 123.118 13.4888C123.118 14.9982 122.852 16.3231 122.312 17.4842C121.773 18.6384 121.131 19.6219 120.4 20.4483C119.669 21.2679 118.897 21.9235 118.071 22.3948C117.251 22.866 116.555 23.1666 115.988 23.3168C116.835 23.5012 117.818 23.8496 118.925 24.3413C120.038 24.833 121.076 25.5365 122.066 26.4585C123.057 27.3805 123.897 28.5347 124.573 29.928C125.249 31.3145 125.604 32.9468 125.604 34.8318C125.604 37.2837 125.16 39.3531 124.293 41.0469C123.419 42.7475 122.196 44.1339 120.625 45.2199C119.041 46.299 117.122 47.0912 114.827 47.5829C112.539 48.0815 109.991 48.3206 107.157 48.3206H90.6562C90.0142 48.3206 89.4952 47.8083 89.4952 47.1595V2.35624C89.4883 1.71424 90.0073 1.19521 90.6493 1.19521ZM106.16 20.059C106.966 20.059 107.751 19.9702 108.53 19.7721C109.308 19.5809 109.991 19.2873 110.579 18.8843C111.166 18.4882 111.651 17.9486 112.027 17.2656C112.402 16.5826 112.593 15.7426 112.593 14.7591C112.593 13.721 112.409 12.8604 112.027 12.1774C111.651 11.4945 111.159 10.9549 110.544 10.552C109.923 10.1558 109.233 9.86899 108.455 9.70508C107.676 9.54116 106.911 9.45238 106.153 9.45238H99.8628V20.0522H106.16V20.059ZM106.795 40.1317C107.553 40.1317 108.4 40.0703 109.336 39.9541C110.278 39.8312 111.159 39.5648 111.958 39.1414C112.757 38.7111 113.427 38.1033 113.966 37.3042C114.513 36.5051 114.786 35.3919 114.786 33.9849C114.786 32.7078 114.519 31.6764 114.014 30.8774C113.495 30.0783 112.839 29.4568 112.033 29.006C111.234 28.5552 110.353 28.2548 109.411 28.0908C108.468 27.9201 107.601 27.8381 106.802 27.8381H99.8764V40.1386H106.795V40.1317Z" fill="#20419A"/>
<path d="M69.805 33.1927C65.1539 33.1927 61.3907 29.4226 61.3907 24.7783C61.3907 20.1341 65.1539 16.3641 69.805 16.3641C74.4561 16.3641 78.2192 20.1341 78.2192 24.7783C78.2192 29.4294 74.4561 33.1927 69.805 33.1927Z" fill="#00AEEF"/>
<path d="M79.1412 35.7812C76.5937 38.2057 73.2061 39.6946 69.4771 39.6946C61.5545 39.6946 55.1278 33.015 55.1278 24.7783C55.1278 16.5485 61.5545 9.86898 69.4771 9.86898C73.0764 9.86898 76.3752 11.2554 78.8885 13.5297C79.3598 13.9532 80.0838 13.9668 80.5413 13.5161L85.6158 8.43475C86.0734 7.98398 86.0802 7.23953 85.6158 6.80242C81.2038 2.59529 75.2687 0 68.719 0C55.1414 0 44.1181 11.0915 44.1181 24.7783C44.1181 38.4584 55.1414 49.5499 68.719 49.5499C75.3985 49.5499 81.436 46.859 85.8685 42.5085C86.3261 42.0577 86.3057 41.3132 85.8618 40.8556L80.7667 35.7743C80.3091 35.3167 79.6056 35.3372 79.1412 35.7812Z" fill="#20419A"/>
</svg>
