<svg width="40" height="40" viewBox="0 0 40 40" fill="none" xmlns="http://www.w3.org/2000/svg">
<circle cx="19.5" cy="19.5" r="12" stroke="white"/>
<path fill-rule="evenodd" clip-rule="evenodd" d="M20 13.3333C16.3267 13.3333 13.3333 16.3267 13.3333 20C13.3333 23.6733 16.3267 26.6667 20 26.6667C23.6733 26.6667 26.6667 23.6733 26.6667 20C26.6667 16.3267 23.6733 13.3333 20 13.3333ZM20 25.3333C17.06 25.3333 14.6667 22.94 14.6667 20C14.6667 17.06 17.06 14.6667 20 14.6667C22.94 14.6667 25.3333 17.06 25.3333 20C25.3333 22.94 22.94 25.3333 20 25.3333ZM20 22C21.1067 22 22 21.1067 22 20C22 18.8933 21.1067 18 20 18C18.8933 18 18 18.8933 18 20C18 21.1067 18.8933 22 20 22Z" fill="white"/>
</svg>
