<svg width="41" height="42" viewBox="0 0 41 42" fill="none" xmlns="http://www.w3.org/2000/svg">
<path d="M20.7464 41C9.84072 41 1 32.0457 1 21C1 9.95428 9.84072 1 20.7464 1C31.652 1 40.4927 9.95428 40.4927 21C40.4927 32.0457 31.652 41 20.7464 41Z" stroke="white" stroke-miterlimit="10"/>
<path d="M34.3295 14.0733C34.0187 12.8477 33.104 11.8821 31.9407 11.5571C29.8271 10.9629 21.373 10.9629 21.373 10.9629C21.373 10.9629 12.9099 10.9629 10.8052 11.5571C9.6419 11.8821 8.72722 12.8477 8.4164 14.0733C7.84805 16.2924 7.84805 20.9255 7.84805 20.9255C7.84805 20.9255 7.84805 25.5587 8.4164 27.7777C8.72722 29.0033 9.6419 29.969 10.8052 30.2939C12.9188 30.8882 21.373 30.8882 21.373 30.8882C21.373 30.8882 29.836 30.8882 31.9407 30.2939C33.104 29.969 34.0187 29.0033 34.3295 27.7777C34.8979 25.5587 34.8979 20.9255 34.8979 20.9255C34.8979 20.9255 34.8979 16.2924 34.3295 14.0733Z" fill="white"/>
<path d="M17.5098 25.7608V16.239L25.7694 20.9999L17.5098 25.7608Z" fill="black"/>
</svg>
